<?xml version="1.0" encoding="utf-8"?>
<!-- Generator: Adobe Illustrator 23.0.3, SVG Export Plug-In . SVG Version: 6.00 Build 0)  -->
<svg version="1.1" id="Calque_1" xmlns="http://www.w3.org/2000/svg" xmlns:xlink="http://www.w3.org/1999/xlink" x="0px" y="0px"
	 viewBox="0 0 700 400" style="enable-background:new 0 0 700 400;" xml:space="preserve">
<style type="text/css">
	.st0{fill:none;}
	.st1{fill:#335C67;}
	.st2{fill:#EAF8BF;}
</style>
<line class="st0" x1="416.13" y1="224.8" x2="283.87" y2="224.8"/>
<polygon class="st1" points="309.11,224.8 252.33,224.8 174.8,92.76 408.8,160.6 "/>
<polygon class="st1" points="525.16,92.98 447.83,224.8 323.01,224.8 "/>
<polygon class="st2" points="448.79,134.51 442.43,138.67 414.23,90.91 381.95,145.6 377.12,144.21 411.41,86.13 415.82,78.65 
	418.64,83.44 "/>
<path class="st1" d="M372.31,104.82l-6.78,16.25v-20.86l-11.28-3.46v19.84l-22.28,14.53l41.14,11.93l36.82-62.77L372.31,104.82z
	 M365.53,121.08L365.53,121.08L365.53,121.08L365.53,121.08z"/>
<g>
	<rect x="518.36" y="191.56" class="st1" width="14.85" height="14.85"/>
	<rect x="536.21" y="191.56" class="st1" width="14.85" height="14.85"/>
	<rect x="536.21" y="209.41" class="st1" width="14.85" height="14.85"/>
	<rect x="518.36" y="209.41" class="st1" width="14.85" height="14.85"/>
</g>
<g>
	<rect x="147.98" y="191.56" class="st1" width="14.85" height="14.85"/>
	<rect x="165.83" y="191.56" class="st1" width="14.85" height="14.85"/>
	<rect x="165.83" y="209.41" class="st1" width="14.85" height="14.85"/>
	<rect x="147.98" y="209.41" class="st1" width="14.85" height="14.85"/>
</g>
<g>
	<rect x="402.52" y="124.92" class="st1" width="10.11" height="10.11"/>
	<rect x="414.67" y="124.92" class="st1" width="10.11" height="10.11"/>
	<rect x="414.67" y="137.07" class="st1" width="10.11" height="10.11"/>
	<rect x="402.52" y="137.07" class="st1" width="10.11" height="10.11"/>
</g>
<polyline class="st0" points="397.63,167.79 402.94,164.37 407.2,161.63 "/>
<polygon class="st2" points="172.55,103.87 164.33,89.95 159.07,98.86 92.53,211.57 16.64,224.8 84.72,224.8 101.15,224.8 
	167.29,112.78 233.42,224.8 243.94,224.8 "/>
<polygon class="st2" points="607.94,211.66 541.36,98.86 536.09,89.95 527.88,103.87 456.49,224.8 467.01,224.8 533.14,112.78 
	598.54,223.56 598.84,224.8 599.27,224.8 615.7,224.8 683.36,224.8 "/>
<g>
	<path class="st1" d="M19.96,252.88H44.7c10.92,0,19.13,0.96,24.63,2.88s8.25,5.19,8.25,9.81c0,1.99-0.65,3.78-1.94,5.36
		c-1.3,1.58-3.18,2.89-5.65,3.92c-2.47,1.03-5.52,1.75-9.15,2.14v0.35c3.83,0.35,7.21,1,10.16,1.93c2.95,0.94,5.26,2.25,6.93,3.94
		s2.51,3.83,2.51,6.43c0,3.16-1.25,5.84-3.74,8.02c-2.49,2.18-6.01,3.83-10.55,4.94s-9.92,1.67-16.14,1.67H19.96V252.88z
		 M30.12,274.92h16.74c7.61,0,12.88-0.74,15.81-2.21s4.39-3.63,4.39-6.47c0-2.93-1.74-5.04-5.23-6.33
		c-3.49-1.29-9.04-1.93-16.65-1.93H30.12V274.92z M30.12,279.95v19.23h18.17c7.77,0,13.27-0.9,16.5-2.69s4.84-4.21,4.84-7.26
		c0-1.95-0.73-3.61-2.18-4.99c-1.46-1.38-3.81-2.44-7.05-3.18c-3.25-0.74-7.58-1.11-13-1.11H30.12z"/>
	<path class="st1" d="M147.7,304.28H99.04v-51.4h48.66v5.27h-38.5v16.63h36.28v5.2H109.2V299h38.5V304.28z"/>
	<path class="st1" d="M154.45,317.81c-1.99,0-3.75-0.08-5.26-0.25c-1.51-0.16-2.81-0.39-3.89-0.67v-5.1
		c1.28,0.23,2.65,0.42,4.12,0.54c1.47,0.13,3.07,0.19,4.78,0.19c2.23,0,4.28-0.26,6.16-0.77c1.87-0.52,3.37-1.39,4.48-2.64
		c1.12-1.24,1.67-2.95,1.67-5.13v-51.12h10.22v50.66c0,3.21-0.91,5.87-2.72,7.98c-1.81,2.11-4.38,3.69-7.71,4.73
		C162.99,317.29,159.04,317.81,154.45,317.81z"/>
	<path class="st1" d="M254.76,304.28L244,287.96h-35.03l-10.7,16.31h-10.28l34.19-51.61h9.15l33.95,51.61H254.76z M240.95,282.66
		l-10.22-16.21c-0.24-0.42-0.63-1.11-1.17-2.07c-0.54-0.96-1.09-1.96-1.64-2.99c-0.56-1.03-1.02-1.86-1.38-2.5
		c-0.4,0.96-0.83,1.92-1.29,2.87c-0.46,0.95-0.91,1.83-1.34,2.64c-0.44,0.81-0.82,1.49-1.14,2.06l-10.4,16.21H240.95z"/>
	<path class="st1" d="M277.35,304.28v-51.4h10.16v51.4H277.35z"/>
	<path class="st1" d="M366.36,304.28l-10.76-16.31h-35.03l-10.7,16.31h-10.28l34.19-51.61h9.15l33.95,51.61H366.36z M352.55,282.66
		l-10.22-16.21c-0.24-0.42-0.63-1.11-1.17-2.07c-0.54-0.96-1.09-1.96-1.64-2.99c-0.56-1.03-1.02-1.86-1.38-2.5
		c-0.4,0.96-0.83,1.92-1.29,2.87c-0.46,0.95-0.91,1.83-1.34,2.64c-0.44,0.81-0.82,1.49-1.14,2.06l-10.4,16.21H352.55z"/>
</g>
<g>
	<path class="st2" d="M407.95,304.87v-51.4h8.46v51.4H407.95z"/>
	<path class="st2" d="M468.4,304.87l-24.43-45.49h-0.4c0.13,0.96,0.25,2.13,0.35,3.52s0.18,2.89,0.25,4.52
		c0.07,1.63,0.1,3.29,0.1,4.97v32.48h-7.86v-51.4h12.54l23.04,42.75h0.35l23.38-42.75h12.44v51.4h-8.36v-32.91
		c0-1.52,0.03-3.05,0.1-4.59c0.07-1.54,0.15-2.99,0.25-4.36s0.2-2.56,0.3-3.57h-0.4l-24.73,45.42H468.4z"/>
	<path class="st2" d="M560.04,304.87l-24.43-45.49h-0.4c0.13,0.96,0.25,2.13,0.35,3.52s0.18,2.89,0.25,4.52
		c0.07,1.63,0.1,3.29,0.1,4.97v32.48h-7.86v-51.4h12.54l23.04,42.75h0.35l23.38-42.75h12.44v51.4h-8.36v-32.91
		c0-1.52,0.03-3.05,0.1-4.59c0.07-1.54,0.15-2.99,0.25-4.36s0.2-2.56,0.3-3.57h-0.4l-24.73,45.42H560.04z"/>
	<path class="st2" d="M682.78,279.1c0,3.96-0.71,7.56-2.14,10.81s-3.54,6.04-6.34,8.37c-2.8,2.33-6.28,4.13-10.42,5.4
		s-8.96,1.9-14.43,1.9c-5.64,0-10.56-0.63-14.75-1.9c-4.2-1.27-7.68-3.07-10.45-5.41c-2.77-2.34-4.84-5.14-6.22-8.4
		c-1.38-3.26-2.07-6.87-2.07-10.83c0-5.25,1.23-9.86,3.68-13.82c2.45-3.96,6.18-7.04,11.17-9.25c4.99-2.2,11.25-3.3,18.78-3.3
		c7.2,0,13.26,1.09,18.18,3.27c4.92,2.18,8.66,5.24,11.19,9.19C681.51,269.07,682.78,273.73,682.78,279.1z M624.87,279.1
		c0,4.36,0.88,8.13,2.64,11.32c1.76,3.19,4.45,5.65,8.08,7.38c3.63,1.73,8.25,2.6,13.86,2.6c5.64,0,10.26-0.87,13.86-2.6
		c3.6-1.73,6.26-4.2,7.98-7.38s2.59-6.96,2.59-11.32c0-6.63-1.97-11.82-5.9-15.56c-3.93-3.74-10.06-5.61-18.38-5.61
		c-5.64,0-10.28,0.86-13.93,2.57c-3.65,1.71-6.36,4.14-8.13,7.29S624.87,274.72,624.87,279.1z"/>
</g>
</svg>
